<svg xmlns="http://www.w3.org/2000/svg" xmlns:xlink="http://www.w3.org/1999/xlink" version="1.1" x="0px" y="0px" viewBox="0 0 90 112.5" enable-background="new 0 0 90 90" xml:space="preserve"><path d="M29.527,9.404c0,0-2.465,8.803-0.997,12.854c1.467,4.05,2.875,7.044,0.235,5.87c-2.643-1.174-4.109-1.408-5.52-5.282  c-1.406-3.874-2.035-4.585,0.119-10.507c1.409-3.874,3.05-2.934,3.991-2.993C28.294,9.287,29.527,9.404,29.527,9.404z"/><path d="M40.034,9.345l-2.465,8.687c0,0-1.409,2.993,0.117,4.93s2.524,5.576,0.938,8.158c-1.583,2.583-2.407,1.116-2.816,0.234  c-0.41-0.88-4.108-6.338-4.108-6.338s-0.882-1.115-0.999-4.343c-0.136-3.699,1.408-9.391,1.408-9.391s0.354-2.642,2.173-3.933  c1.82-1.291,3.464-0.999,3.932-0.999C38.686,6.351,41.091,6.586,40.034,9.345z"/><path d="M51.128,9.169l-3.697,9.157c0,0-1.232,2.113-0.118,3.932c1.116,1.819,2.172,6.398,0.235,8.158  c-1.937,1.761-2.583,0.412-2.701,0.119c-0.117-0.293-3.932-6.75-3.932-6.75s-1.468-1.351-0.589-4.872  c0.882-3.521,3.054-11.387,3.054-11.387s0.292-0.763,0.587-0.763c0.292,0,3.755-1.115,3.755-1.115s1.175,0.059,1.527,0.528  C49.602,6.645,51.246,8.875,51.128,9.169z"/><path d="M60.636,15.919c0,0-3.814,4.52-3.814,4.696c0,0.176-0.646,1.056-0.528,1.761c0.118,0.704,1.058,4.871-0.527,6.28  c-1.585,1.408-3.112,2.23-3.699,0.469c-0.587-1.76-1.878-5.224-1.878-5.224s-0.82-0.646,0-3.933  c0.822-3.286,3.874-9.273,3.874-9.273s0.293-0.646,1.585-0.705c1.292-0.059,2.816,0.059,2.816,0.059s0.706-0.235,0.823,0.939  C59.403,12.162,60.988,15.625,60.636,15.919z"/><path d="M47.254,63.873"/><path d="M22.956,81.216c4.643,0.299,23.092,0.024,23.092,0.024c0-21.714,5.08-25.761,5.08-25.761s9.626-6.455,10.447-7.043  c0.822-0.587,1.058-1.408,1.175-1.879c0.116-0.468,7.102-9.978,8.569-12.033c1.467-2.054,0.176-2.582,0.234-2.935  c0.059-0.352-5.282-11.974-5.811-12.913c-0.528-0.939-0.14-1.57-1.586-2.113c-0.469-0.176-0.646-0.059-1.349,0.763  c-3.437,4.008-1.291,9.45-0.882,10.448c0.412,0.998,0.119,1.408-0.468,1.35c-0.587-0.058-4.697,4.167-5.225,5.165  c-0.527,0.999-1.114,0.646-1.114,0.646c-18.843-5.165-22.244,15.908-22.541,15.966c-0.292,0.06-4.872-3.228-5.048-3.639  c-0.175-0.412,0.412-0.765,3.287-3.992c2.877-3.229,2.465-4.167,3.169-5.812c0.705-1.643-0.175-2.875-0.175-2.875  s-1.291-2.23-1.761-3.051c-0.472-0.823-1.176-0.412-1.408-0.471c-0.235-0.058-2.817,0.119-3.523,0.059  c-0.705-0.059-2.171-1.231-2.875-1.525c0,0-1.292-0.922-2.122-0.504c-1.008,0.507-2.056,0.738-3.585,6.774  c-0.38,1.501-1.427,7.027-1.427,10.727c0,4.782,2.487,28.852,2.487,28.852S19.808,80.435,22.956,81.216z"/><text x="0" y="105" fill="#000000" font-size="5px" font-weight="bold" font-family="'Helvetica Neue', Helvetica, Arial-Unicode, Arial, Sans-serif">Created by Alex Almqvist</text><text x="0" y="110" fill="#000000" font-size="5px" font-weight="bold" font-family="'Helvetica Neue', Helvetica, Arial-Unicode, Arial, Sans-serif">from the Noun Project</text></svg>